<?xml version="1.0" encoding="UTF-8"?>
<svg version="1.1" xmlns="http://www.w3.org/2000/svg" width="736" height="736">
<path d="M0 0 C242.88 0 485.76 0 736 0 C736 242.88 736 485.76 736 736 C493.12 736 250.24 736 0 736 C0 493.12 0 250.24 0 0 Z " fill="#D9EFE6" transform="translate(0,0)"/>
<path d="M0 0 C10.42152351 8.96184789 17.70112131 19.20465865 25.12109375 30.66601562 C26.57077078 32.88661644 28.04667649 35.08653337 29.53662109 37.28027344 C29.99367432 37.95485596 30.45072754 38.62943848 30.92163086 39.32446289 C31.77734236 40.58535339 32.63573236 41.844432 33.49731445 43.10131836 C39.65118578 52.23307819 39.69233455 61.30560901 37.98388672 71.89404297 C37.02294083 76.45280239 35.98983741 80.98895765 34.88037109 85.51391602 C34.4121168 87.45046159 33.97587171 89.39465884 33.54052734 91.33886719 C33.26821289 92.46881104 32.99589844 93.59875488 32.71533203 94.76293945 C32.5883442 98.96219624 34.08979858 100.70312605 36.61865234 103.95996094 C39.25839673 111.04633356 38.52708541 120.56159204 35.93115234 127.52246094 C34.11932509 131.44166173 31.93957406 134.14995026 28.61865234 136.95996094 C28.19068359 137.47300781 27.76271484 137.98605469 27.32177734 138.51464844 C24.97952953 140.5023358 22.94312983 140.68680556 19.93115234 141.14746094 C18.93728516 141.30601562 17.94341797 141.46457031 16.91943359 141.62792969 C16.16017578 141.7375 15.40091797 141.84707031 14.61865234 141.95996094 C14.71210241 148.78798387 14.81953508 155.61569122 14.93603516 162.44335938 C14.97397647 164.75906571 15.00888532 167.07482403 15.04052734 169.390625 C14.72369453 190.92507076 14.72369453 190.92507076 18.61865234 211.95996094 C20.43068945 212.9595877 20.43068945 212.9595877 22.68115234 213.45996094 C25.92100051 214.40105969 28.81541435 215.45780844 31.80615234 217.02246094 C34.99461239 218.6901725 38.16287981 219.92322918 41.61865234 220.95996094 C41.61865234 221.61996094 41.61865234 222.27996094 41.61865234 222.95996094 C42.24771484 223.13011719 42.87677734 223.30027344 43.52490234 223.47558594 C44.38083984 223.71792969 45.23677734 223.96027344 46.11865234 224.20996094 C47.37162109 224.55800781 47.37162109 224.55800781 48.64990234 224.91308594 C52.49281341 226.26821773 56.0052584 228.08875413 59.61865234 229.95996094 C60.96286631 230.64000556 62.30791249 231.31840782 63.65380859 231.99511719 C65.67217928 233.01115442 67.69050334 234.02719505 69.70654297 235.04785156 C72.86434079 236.63442248 76.00994128 238.12687733 79.26318359 239.51464844 C82.38268076 240.85832009 85.28676405 242.35654837 88.24365234 244.02246094 C91.64815867 245.93932482 94.99402897 247.51462825 98.61865234 248.95996094 C100.4658339 249.91274568 102.29901031 250.89307987 104.11865234 251.89746094 C105.03646484 252.40148437 105.95427734 252.90550781 106.89990234 253.42480469 C108.69378246 254.43772837 110.47194348 255.47907827 112.23193359 256.54980469 C114.23719698 257.73458387 116.15644046 258.70575293 118.30615234 259.58496094 C120.09767897 260.3286135 121.88369717 261.09248335 123.61865234 261.95996094 C123.61865234 262.61996094 123.61865234 263.27996094 123.61865234 263.95996094 C124.71693359 264.10691406 124.71693359 264.10691406 125.83740234 264.25683594 C136.84325666 267.03921484 146.67915315 280.6002313 152.36083984 289.77246094 C155.29784628 295.03277098 157.6857652 300.25794386 159.61865234 305.95996094 C159.94091797 306.90484375 160.26318359 307.84972656 160.59521484 308.82324219 C163.19747398 316.79886848 164.80156844 324.15618728 164.55615234 332.58496094 C164.21389957 344.62231271 167.6161945 356.06762699 170.55615234 367.64746094 C181.39749363 410.39833709 181.39749363 410.39833709 173.75537109 423.40527344 C171.39733602 428.70477495 171.67414442 434.33146473 172.61865234 439.95996094 C173.94110868 442.93262936 175.41632163 445.42707263 177.30615234 448.06933594 C178.61865234 449.95996094 178.61865234 449.95996094 178.61865234 451.95996094 C179.27865234 451.95996094 179.93865234 451.95996094 180.61865234 451.95996094 C182.67094016 455.03839266 183.20444615 458.1376292 183.14990234 461.81933594 C182.27784604 465.33320988 179.8739979 467.33290071 177.24755859 469.70996094 C175.49348011 472.13286072 175.31597791 473.20133278 175.0168457 476.10058594 C174.81973999 478.01097656 174.81973999 478.01097656 174.61865234 479.95996094 C173.73137955 479.9702684 172.84410675 479.98057587 171.9299469 479.99119568 C163.58613664 480.08899518 155.2424002 480.19148409 146.89871311 480.29930019 C142.60869024 480.3545683 138.31866061 480.40799437 134.02856445 480.45727539 C129.89179799 480.50486179 125.75511698 480.55720225 121.61845207 480.61290169 C120.03675388 480.63335128 118.45503222 480.65205996 116.87329292 480.66903496 C114.66536056 480.69302163 112.45759114 480.72308349 110.24975586 480.75463867 C108.9906691 480.77018295 107.73158234 480.78572723 106.43434143 480.80174255 C103.71567693 480.64082898 103.71567693 480.64082898 102.61865234 481.95996094 C100.61906871 482.00076877 98.6181998 482.0025045 96.61865234 481.95996094 C96.61865234 481.29996094 96.61865234 480.63996094 96.61865234 479.95996094 C95.3191993 479.96603646 94.01974625 479.97211199 92.68091583 479.97837162 C61.78037488 480.12260582 30.87981449 480.26128903 -0.02078131 480.39320854 C-3.83058615 480.40947801 -7.64039079 480.42579396 -11.45019531 480.44213867 C-12.20860511 480.4453916 -12.96701491 480.44864452 -13.74840683 480.45199602 C-26.00137971 480.50466139 -38.2543325 480.56108603 -50.50728196 480.61891914 C-63.09568148 480.67825115 -75.68409423 480.73349879 -88.27252817 480.78501648 C-96.02971275 480.81688934 -103.78686998 480.85188417 -111.54402161 480.89097285 C-117.50908539 480.92068838 -123.47415877 480.94469977 -129.43925667 480.96666718 C-131.87395605 480.97650575 -134.30864898 480.9881455 -136.74333 481.001791 C-149.33531429 481.07131279 -161.82617754 481.00728049 -174.38134766 479.95996094 C-174.38134766 480.61996094 -174.38134766 481.27996094 -174.38134766 481.95996094 C-176.04746671 482.00268194 -177.71517651 482.00059926 -179.38134766 481.95996094 C-179.71134766 481.62996094 -180.04134766 481.29996094 -180.38134766 480.95996094 C-183.42463952 480.83459238 -186.44632139 480.77383651 -189.4909668 480.75463867 C-190.44696274 480.74473907 -191.40295868 480.73483948 -192.38792419 480.72463989 C-195.5640918 480.69292241 -198.74027439 480.66822713 -201.91650391 480.64355469 C-204.11226298 480.622994 -206.30801802 480.60199777 -208.50376892 480.58058167 C-214.29550923 480.52526955 -220.0872858 480.47590072 -225.87908936 480.42773438 C-231.78417199 480.37758591 -237.68920169 480.32186519 -243.59423828 480.26660156 C-255.18989623 480.15890827 -266.78560006 480.05748827 -278.38134766 479.95996094 C-278.47442624 478.51978143 -278.54096223 477.07786922 -278.59619141 475.63574219 C-278.65601196 474.43171753 -278.65601196 474.43171753 -278.71704102 473.20336914 C-278.38134766 470.95996094 -278.38134766 470.95996094 -276.77001953 469.32519531 C-274.94384766 468.14746094 -274.94384766 468.14746094 -273.01025391 467.12792969 C-271.18285947 466.05735096 -271.18285947 466.05735096 -270.65869141 463.82324219 C-270.52140625 462.90091797 -270.52140625 462.90091797 -270.38134766 461.95996094 C-271.70134766 461.29996094 -273.02134766 460.63996094 -274.38134766 459.95996094 C-274.75634766 457.70996094 -274.75634766 457.70996094 -274.38134766 454.95996094 C-269.40837468 450.95996094 -269.40837468 450.95996094 -266.38134766 450.95996094 C-267.55902387 444.94072696 -270.20902044 441.16813095 -274.01806641 436.38964844 C-275.38134766 433.95996094 -275.38134766 433.95996094 -275.21728516 431.23730469 C-274.38134766 428.95996094 -274.38134766 428.95996094 -272.31884766 427.64746094 C-271.67947266 427.42058594 -271.04009766 427.19371094 -270.38134766 426.95996094 C-270.87634766 425.47496094 -270.87634766 425.47496094 -271.38134766 423.95996094 C-271.81133289 416.65021205 -271.57653157 409.95710968 -269.38134766 402.95996094 C-268.72134766 402.95996094 -268.06134766 402.95996094 -267.38134766 402.95996094 C-267.30013672 401.80109375 -267.21892578 400.64222656 -267.13525391 399.44824219 C-266.5347205 394.69932844 -264.74796247 391.21742146 -262.31884766 387.14746094 C-261.91835205 386.45676514 -261.51785645 385.76606934 -261.10522461 385.05444336 C-257.00111653 378.09354625 -252.37284406 371.56592687 -247.21337891 365.34667969 C-244.34289739 361.60709715 -244.22824456 358.54641957 -244.05712891 353.96386719 C-243.9971875 352.76439453 -243.93724609 351.56492187 -243.87548828 350.32910156 C-243.75610961 347.82728397 -243.65402332 345.32457022 -243.57080078 342.82128906 C-242.91844752 330.92059226 -238.85592218 322.10746244 -230.89697266 313.28808594 C-229.38134766 311.95996094 -229.38134766 311.95996094 -227.38134766 311.95996094 C-227.12095703 311.24582031 -226.86056641 310.53167969 -226.59228516 309.79589844 C-225.31932316 306.81470357 -223.78353753 304.29342935 -222.00634766 301.58496094 C-219.97630115 298.46439359 -218.01257466 295.36709009 -216.25634766 292.08496094 C-214.2856826 288.80051918 -212.18261801 286.55626029 -209.38134766 283.95996094 C-206.5794509 281.22990769 -203.942122 278.46569726 -201.44384766 275.45996094 C-198.6759162 272.19137005 -195.81017156 269.53157886 -192.38134766 266.95996094 C-191.72134766 266.95996094 -191.06134766 266.95996094 -190.38134766 266.95996094 C-190.38134766 266.29996094 -190.38134766 265.63996094 -190.38134766 264.95996094 C-184.96958295 260.95996094 -184.96958295 260.95996094 -182.38134766 260.95996094 C-182.38134766 260.29996094 -182.38134766 259.63996094 -182.38134766 258.95996094 C-176.96958295 254.95996094 -176.96958295 254.95996094 -174.38134766 254.95996094 C-174.38134766 254.29996094 -174.38134766 253.63996094 -174.38134766 252.95996094 C-172.76416016 251.69824219 -172.76416016 251.69824219 -170.50634766 250.27246094 C-167.18900241 248.15584169 -163.94996218 245.96630654 -160.74853516 243.67871094 C-155.42513207 239.93971268 -149.94715475 236.51187027 -144.38134766 233.14746094 C-143.38385498 232.54216553 -142.3863623 231.93687012 -141.35864258 231.31323242 C-133.7820012 226.74282047 -126.10676219 222.38493911 -118.34228516 218.14355469 C-114.78666257 216.1986206 -111.30060985 214.15910895 -107.81884766 212.08496094 C-104.36477815 210.0288528 -100.9876205 208.32510477 -97.25634766 206.83496094 C-93.98996335 205.45016003 -93.98996335 205.45016003 -91.88134766 202.58496094 C-89.12351929 188.10636199 -89.59236013 173.64302236 -95.38134766 159.95996094 C-96.47447266 160.02183594 -97.56759766 160.08371094 -98.69384766 160.14746094 C-102.38134766 159.95996094 -102.38134766 159.95996094 -104.09228516 158.74511719 C-105.75269022 156.44570776 -105.68074094 155.02353585 -105.69384766 152.20996094 C-106.02540981 147.26536009 -107.40813202 144.95342488 -110.90869141 141.53027344 C-114.64572703 137.54542378 -114.6055768 134.06833472 -114.50634766 128.70996094 C-114.48830078 127.44667969 -114.47025391 126.18339844 -114.45166016 124.88183594 C-114.42845703 123.91761719 -114.40525391 122.95339844 -114.38134766 121.95996094 C-113.72134766 121.95996094 -113.06134766 121.95996094 -112.38134766 121.95996094 C-110.90232931 107.93667583 -115.1037551 92.87861337 -120.38134766 79.95996094 C-124.58288644 64.65806043 -122.70992636 47.27401188 -121.63134766 31.64746094 C-121.56979492 30.62885986 -121.50824219 29.61025879 -121.44482422 28.56079102 C-120.720469 19.43797287 -118.40093277 10.31101414 -111.38134766 3.95996094 C-78.87364099 -23.47562128 -33.28127368 -27.79068829 0 0 Z " fill="#B4D5FA" transform="translate(414.38134765625,144.0400390625)"/>
<path d="M0 0 C10.42152351 8.96184789 17.70112131 19.20465865 25.12109375 30.66601562 C26.57077078 32.88661644 28.04667649 35.08653337 29.53662109 37.28027344 C29.99367432 37.95485596 30.45072754 38.62943848 30.92163086 39.32446289 C31.77734236 40.58535339 32.63573236 41.844432 33.49731445 43.10131836 C39.65118578 52.23307819 39.69233455 61.30560901 37.98388672 71.89404297 C37.02294083 76.45280239 35.98983741 80.98895765 34.88037109 85.51391602 C34.4121168 87.45046159 33.97587171 89.39465884 33.54052734 91.33886719 C33.13205566 93.03378296 33.13205566 93.03378296 32.71533203 94.76293945 C32.5883442 98.96219624 34.08979858 100.70312605 36.61865234 103.95996094 C39.25839673 111.04633356 38.52708541 120.56159204 35.93115234 127.52246094 C34.11932509 131.44166173 31.93957406 134.14995026 28.61865234 136.95996094 C27.97669922 137.72953125 27.97669922 137.72953125 27.32177734 138.51464844 C24.97952953 140.5023358 22.94312983 140.68680556 19.93115234 141.14746094 C18.93728516 141.30601562 17.94341797 141.46457031 16.91943359 141.62792969 C16.16017578 141.7375 15.40091797 141.84707031 14.61865234 141.95996094 C14.71210241 148.78798387 14.81953508 155.61569122 14.93603516 162.44335938 C14.97397647 164.75906571 15.00888532 167.07482403 15.04052734 169.390625 C14.41978274 192.36915896 14.41978274 192.36915896 20.61865234 213.95996094 C24.40591403 227.50499097 21.1128624 240.13799304 14.93115234 252.27246094 C7.24027926 261.21050263 -2.73753573 266.96445357 -14.38134766 268.95996094 C-38.75157775 270.67251046 -65.13461263 267.37831878 -84.45947266 250.86230469 C-92.88030853 242.52704641 -98.35227761 234.29190953 -99.06884766 222.27246094 C-98.89340115 214.97548115 -96.38149492 209.6329694 -93.01025391 203.33496094 C-87.71475241 192.36298661 -89.58488455 176.77223005 -93.18212891 165.43652344 C-93.86505355 163.59165592 -94.61484327 161.77169857 -95.38134766 159.95996094 C-96.47447266 160.02183594 -97.56759766 160.08371094 -98.69384766 160.14746094 C-102.38134766 159.95996094 -102.38134766 159.95996094 -104.09228516 158.74511719 C-105.75269022 156.44570776 -105.68074094 155.02353585 -105.69384766 152.20996094 C-106.02540981 147.26536009 -107.40813202 144.95342488 -110.90869141 141.53027344 C-114.64572703 137.54542378 -114.6055768 134.06833472 -114.50634766 128.70996094 C-114.48830078 127.44667969 -114.47025391 126.18339844 -114.45166016 124.88183594 C-114.41685547 123.43550781 -114.41685547 123.43550781 -114.38134766 121.95996094 C-113.72134766 121.95996094 -113.06134766 121.95996094 -112.38134766 121.95996094 C-110.90232931 107.93667583 -115.1037551 92.87861337 -120.38134766 79.95996094 C-124.58288644 64.65806043 -122.70992636 47.27401188 -121.63134766 31.64746094 C-121.56979492 30.62885986 -121.50824219 29.61025879 -121.44482422 28.56079102 C-120.720469 19.43797287 -118.40093277 10.31101414 -111.38134766 3.95996094 C-78.87364099 -23.47562128 -33.28127368 -27.79068829 0 0 Z " fill="#D28984" transform="translate(414.38134765625,144.0400390625)"/>
<path d="M0 0 C10.42152351 8.96184789 17.70112131 19.20465865 25.12109375 30.66601562 C26.57077078 32.88661644 28.04667649 35.08653337 29.53662109 37.28027344 C29.99367432 37.95485596 30.45072754 38.62943848 30.92163086 39.32446289 C31.77734236 40.58535339 32.63573236 41.844432 33.49731445 43.10131836 C40.19005089 53.03270277 39.65435164 62.69630659 37.56787109 74.13964844 C34.01241727 92.08936851 34.01241727 92.08936851 31.61865234 95.95996094 C29.41162109 96.42871094 29.41162109 96.42871094 26.80615234 96.45996094 C22.13972571 96.76166956 19.92670999 97.46287143 16.61865234 100.95996094 C15.73941843 102.03986085 14.86452007 103.12330298 13.99365234 104.20996094 C13.20990234 105.11746094 12.42615234 106.02496094 11.61865234 106.95996094 C10.62865234 106.95996094 9.63865234 106.95996094 8.61865234 106.95996094 C4.52817918 97.57784392 5.19691297 87.79168538 5.25830078 77.75170898 C5.31593599 62.1469769 1.82492854 49.96684945 -8.94384766 38.14746094 C-20.65784378 27.63490032 -31.34315963 26.22258159 -46.44384766 26.58496094 C-48.03041444 26.6015198 -49.61700604 26.61585431 -51.20361328 26.62792969 C-67.66938199 26.80135511 -81.71241037 27.09347074 -94.38134766 38.95996094 C-99.64933392 44.49779951 -102.23330237 50.69566232 -104.38134766 57.95996094 C-104.72431885 59.10489014 -105.06729004 60.24981934 -105.4206543 61.42944336 C-106.72727865 66.72175716 -106.64998573 71.93035528 -106.61181641 77.35449219 C-106.61135818 78.42366379 -106.61089996 79.49283539 -106.61042786 80.59440613 C-106.60742096 82.84086221 -106.59958186 85.0873165 -106.5871582 87.33374023 C-106.56881346 90.77888325 -106.56664937 94.22375837 -106.56689453 97.66894531 C-106.56198197 99.8557966 -106.55615479 102.04264607 -106.54931641 104.22949219 C-106.54820358 105.26072708 -106.54709076 106.29196198 -106.54594421 107.35444641 C-106.53956436 108.30941513 -106.53318451 109.26438385 -106.52661133 110.24829102 C-106.52279953 111.08797928 -106.51898773 111.92766754 -106.51506042 112.7928009 C-106.46332743 115.14269719 -106.46332743 115.14269719 -105.38134766 117.95996094 C-107.03134766 117.95996094 -108.68134766 117.95996094 -110.38134766 117.95996094 C-110.61321777 116.98647705 -110.84508789 116.01299316 -111.08398438 115.01000977 C-111.94865086 111.38425124 -112.81831122 107.7597057 -113.68945312 104.13549805 C-114.06515741 102.56941632 -114.4395228 101.00301274 -114.8125 99.4362793 C-115.35012256 97.17898137 -115.89261523 94.92290053 -116.43603516 92.66699219 C-116.60070282 91.9709639 -116.76537048 91.27493561 -116.93502808 90.55781555 C-117.82569389 86.88245271 -118.90421454 83.43947371 -120.38134766 79.95996094 C-124.58288644 64.65806043 -122.70992636 47.27401188 -121.63134766 31.64746094 C-121.56979492 30.62885986 -121.50824219 29.61025879 -121.44482422 28.56079102 C-120.720469 19.43797287 -118.40093277 10.31101414 -111.38134766 3.95996094 C-78.87364099 -23.47562128 -33.28127368 -27.79068829 0 0 Z " fill="#170E11" transform="translate(414.38134765625,144.0400390625)"/>
<path d="M0 0 C1.65 0.33 3.3 0.66 5 1 C4.98952637 1.84594727 4.97905273 2.69189453 4.96826172 3.56347656 C4.93377355 6.76170812 4.90890643 9.95984358 4.89013672 13.15820312 C4.88020081 14.53128212 4.86664739 15.90434067 4.84912109 17.27734375 C4.69050783 30.04104658 6.24847264 41.26877806 10.09765625 53.3828125 C14.35266418 70.43968413 14.95806441 93.08387118 7 109 C6.87050402 110.74191213 6.79757528 112.48820201 6.75390625 114.234375 C6.72103516 115.28367187 6.68816406 116.33296875 6.65429688 117.4140625 C6.59353148 119.62230298 6.53618987 121.83064056 6.48242188 124.0390625 C6.1356504 134.74317818 6.1356504 134.74317818 4 139 C3.01 139.33 2.02 139.66 1 140 C0.97072084 136.00001563 0.95310781 132.00005924 0.9375 128 C0.92912109 126.87464844 0.92074219 125.74929688 0.91210938 124.58984375 C0.90888672 123.48769531 0.90566406 122.38554688 0.90234375 121.25 C0.89710693 120.24453125 0.89187012 119.2390625 0.88647461 118.203125 C0.99621244 115.10686619 1.35779203 112.09987115 1.76747131 109.03100586 C2.46841643 102.9086488 2.24225634 96.6585698 2.25 90.5 C2.25200409 89.72831482 2.25400818 88.95662964 2.256073 88.16156006 C2.26519946 73.77415733 1.36236388 59.55152191 -1.52734375 45.42138672 C-3.39275338 35.86501653 -3.12692022 25.58557026 -3.25 15.875 C-3.2713501 14.98683594 -3.2927002 14.09867187 -3.31469727 13.18359375 C-3.34182074 7.9995586 -2.82174442 4.52964236 0 0 Z " fill="#8BA1FC" transform="translate(255,485)"/>
<path d="M0 0 C0.66 0 1.32 0 2 0 C1.96519531 1.0621875 1.93039062 2.124375 1.89453125 3.21875 C1.37954662 11.82635768 1.37954662 11.82635768 3.5 20 C9.30608972 32.78456294 3.18506467 48.93231588 -1.1484375 61.26953125 C-2.8966165 66.87493089 -2.3408096 71.62990738 0 77 C1.18166195 83.22925498 1.17800054 89.4086067 1.203125 95.734375 C1.20882507 96.84935364 1.21452515 97.96433228 1.22039795 99.11309814 C1.22981036 101.45966655 1.23636691 103.80624794 1.24023438 106.15283203 C1.25000504 109.75185701 1.28109005 113.350326 1.3125 116.94921875 C1.31902443 119.23176745 1.32427709 121.51432022 1.328125 123.796875 C1.3404718 124.87499451 1.3528186 125.95311401 1.36553955 127.06390381 C1.36253845 128.06214172 1.35953735 129.06037964 1.35644531 130.08886719 C1.36009094 130.96710144 1.36373657 131.84533569 1.36749268 132.75018311 C1 135 1 135 -0.27227783 136.8069458 C-2 138 -2 138 -6 138 C-5.11106636 130.38056876 -5.11106636 130.38056876 -4.49511719 128.27001953 C-3.4537124 123.49537373 -3.73369005 118.51774437 -3.70483398 113.64990234 C-3.68785186 111.66610375 -3.64401328 109.68259304 -3.59960938 107.69921875 C-3.54718503 99.62586953 -4.52235075 92.79882784 -7.07495117 85.12963867 C-10.20804886 74.52969692 -7.26646262 65.53166797 -3.41015625 55.65234375 C-0.76052771 48.78973244 -0.81657703 42.75576886 -0.8125 35.4375 C-0.80025391 34.30763672 -0.78800781 33.17777344 -0.77539062 32.01367188 C-0.76434081 25.61582731 -1.2045396 19.6800682 -2.59350586 13.42822266 C-3.23432548 9.60023949 -3.02183754 5.74948452 -2 2 C-1.34 1.34 -0.68 0.68 0 0 Z " fill="#8DA3FC" transform="translate(517,488)"/>
<path d="M0 0 C1.65 0.33 3.3 0.66 5 1 C4.98952637 1.84594727 4.97905273 2.69189453 4.96826172 3.56347656 C4.93377355 6.76170812 4.90890643 9.95984358 4.89013672 13.15820312 C4.88020081 14.53128212 4.86664739 15.90434067 4.84912109 17.27734375 C4.69050783 30.04104658 6.24847264 41.26877806 10.09765625 53.3828125 C14.12117341 69.51171679 15.05616031 91.7221529 8 107 C7.67 107 7.34 107 7 107 C7 104.36 7 101.72 7 99 C7.66 99 8.32 99 9 99 C9.57739474 87.77288008 8.84161647 77.87290824 5.99829102 66.98608398 C2.49112876 53.47016347 0.87422384 39.78427199 0.34936523 25.84716797 C0.08487871 19.19057103 -0.7650449 12.70371263 -1.79296875 6.125 C-2 3 -2 3 0 0 Z " fill="#96B6FD" transform="translate(255,485)"/>
<path d="M0 0 C0.33 0 0.66 0 1 0 C1.33 1.98 1.66 3.96 2 6 C2.66 5.01 3.32 4.02 4 3 C4.05837668 6.70826651 4.09372277 10.4164137 4.125 14.125 C4.14175781 15.17171875 4.15851563 16.2184375 4.17578125 17.296875 C4.24094229 27.59231881 4.24094229 27.59231881 2 32 C0.515 32.495 0.515 32.495 -1 33 C-1.02927916 29.00001563 -1.04689219 25.00005924 -1.0625 21 C-1.07087891 19.87464844 -1.07925781 18.74929688 -1.08789062 17.58984375 C-1.10533416 11.62415603 -0.91781223 5.89712427 0 0 Z " fill="#97B6FD" transform="translate(257,592)"/>
<path d="M0 0 C0.309375 0.639375 0.61875 1.27875 0.9375 1.9375 C1.8345163 3.93610821 1.8345163 3.93610821 3 5 C4.11741974 10.82152241 4.11783383 16.52529314 4.0625 22.4375 C4.05798828 23.35982422 4.05347656 24.28214844 4.04882812 25.23242188 C4.03713938 27.48835048 4.02075455 29.74413967 4 32 C3.67 32 3.34 32 3 32 C3 30.35 3 28.7 3 27 C2.34 27 1.68 27 1 27 C-2.06849315 6.20547945 -2.06849315 6.20547945 0 0 Z " fill="#98B8FD" transform="translate(514,560)"/>
<path d="M0 0 C3.3 0 6.6 0 10 0 C7.06891557 2.3815061 4.09368285 4.6859304 1.0625 6.9375 C-2.39436905 9.51539286 -5.71466968 12.20746923 -9 15 C-9.66 13.02 -10.32 11.04 -11 9 C-3.57142857 5.71428571 -3.57142857 5.71428571 0 5 C-0.33 4.01 -0.66 3.02 -1 2 C-0.67 1.34 -0.34 0.68 0 0 Z " fill="#CEE0D9" transform="translate(309,137)"/>
<path d="M0 0 C0.66 0.99 1.32 1.98 2 3 C2.66 2.67 3.32 2.34 4 2 C4 3.65 4 5.3 4 7 C2.02 7.99 2.02 7.99 0 9 C0.33 11.64 0.66 14.28 1 17 C-0.9375 16.625 -0.9375 16.625 -3 16 C-4.52949845 12.94100311 -3.40731449 10.70671329 -2.625 7.4375 C-2.34914063 6.26058594 -2.07328125 5.08367187 -1.7890625 3.87109375 C-1 1 -1 1 0 0 Z M1 11 C1.66 11 2.32 11 3 11 C2.67 11.99 2.34 12.98 2 14 C1.67 13.01 1.34 12.02 1 11 Z " fill="#CEDFD8" transform="translate(450,227)"/>
<path d="M0 0 C1.86775659 2.80163489 2.72678306 4.88041803 3.6875 8.0625 C3.95949219 8.94035156 4.23148437 9.81820312 4.51171875 10.72265625 C5 13 5 13 4 15 C3.34 15 2.68 15 2 15 C1.34 16.32 0.68 17.64 0 19 C-1 13.125 -1 13.125 -1 12 C-1.185625 11.236875 -1.37125 10.47375 -1.5625 9.6875 C-2.17438268 5.92879212 -1.18832478 3.56497435 0 0 Z " fill="#D08883" transform="translate(418,237)"/>
<path d="M0 0 C0.33 0 0.66 0 1 0 C1.12117188 0.86882812 1.24234375 1.73765625 1.3671875 2.6328125 C1.53476562 3.78523438 1.70234375 4.93765625 1.875 6.125 C2.03742188 7.26195312 2.19984375 8.39890625 2.3671875 9.5703125 C2.97431417 12.86078915 3.86345633 15.85779103 5 19 C3.02 19.33 1.04 19.66 -1 20 C-2.59618954 13.13638499 -1.24720085 6.85445096 0 0 Z " fill="#B7D0F0" transform="translate(315,363)"/>
<path d="M0 0 C1.20628008 2.33214148 2.1654738 4.49642139 3 7 C4.65 7 6.3 7 8 7 C8.33 8.65 8.66 10.3 9 12 C7.68 12.33 6.36 12.66 5 13 C2.69 9.7 0.38 6.4 -2 3 C-1.34 2.01 -0.68 1.02 0 0 Z " fill="#C9DAD3" transform="translate(430,156)"/>
<path d="M0 0 C0.66 0.66 1.32 1.32 2 2 C5.59679066 1.67673447 5.59679066 1.67673447 9 1 C8.625 2.9375 8.625 2.9375 8 5 C7.01 5.495 7.01 5.495 6 6 C6.33 6.66 6.66 7.32 7 8 C3.7 7.34 0.4 6.68 -3 6 C-3 5.01 -3 4.02 -3 3 C-2.34 3 -1.68 3 -1 3 C-0.67 2.01 -0.34 1.02 0 0 Z " fill="#C7DAD2" transform="translate(379,120)"/>
<path d="M0 0 C0.33 0 0.66 0 1 0 C1.33 2.64 1.66 5.28 2 8 C-3.28 8 -8.56 8 -14 8 C-14 7.67 -14 7.34 -14 7 C-13.22914063 6.97421875 -12.45828125 6.9484375 -11.6640625 6.921875 C-10.66117188 6.86515625 -9.65828125 6.8084375 -8.625 6.75 C-7.62726563 6.70359375 -6.62953125 6.6571875 -5.6015625 6.609375 C-2.87253701 6.28187996 -2.87253701 6.28187996 -1.7109375 4.078125 C-1.47632813 3.39234375 -1.24171875 2.7065625 -1 2 C-0.67 1.34 -0.34 0.68 0 0 Z " fill="#BCDAF6" transform="translate(254,616)"/>
<path d="M0 0 C0.33 0 0.66 0 1 0 C1.28373405 3.43559106 1.5211389 6.87285235 1.75 10.3125 C1.87181641 11.77719727 1.87181641 11.77719727 1.99609375 13.27148438 C2.08310547 14.67817383 2.08310547 14.67817383 2.171875 16.11328125 C2.2347168 16.97735596 2.29755859 17.84143066 2.36230469 18.73168945 C2 21 2 21 -0.01074219 22.80541992 C-0.66719727 23.19963135 -1.32365234 23.59384277 -2 24 C-1.84660156 23.37738281 -1.69320312 22.75476563 -1.53515625 22.11328125 C-0.79669205 17.81725228 -0.63537838 13.53758048 -0.4375 9.1875 C-0.37272461 7.86202148 -0.37272461 7.86202148 -0.30664062 6.50976562 C-0.20108464 4.34000377 -0.10008929 2.1700209 0 0 Z " fill="#C0DDF3" transform="translate(171,485)"/>
<path d="M0 0 C3 1 3 1 4.8125 3.3125 C6 6 6 6 5.1875 8.3125 C4.795625 8.869375 4.40375 9.42625 4 10 C4 9.34 4 8.68 4 8 C3.34 8 2.68 8 2 8 C0.23537317 4.91190305 0 3.76687864 0 0 Z " fill="#C8847E" transform="translate(410,189)"/>
<path d="M0 0 C2.24234009 3.36351013 2.27098215 4.62310056 2.25 8.5625 C2.25515625 9.53316406 2.2603125 10.50382812 2.265625 11.50390625 C2 14 2 14 0 16 C-1.125 13.6875 -1.125 13.6875 -2 11 C-1.34 10.01 -0.68 9.02 0 8 C0.24055468 5.94290404 0.24055468 5.94290404 0.125 3.8125 C0.08375 2.554375 0.0425 1.29625 0 0 Z " fill="#CBDAD1" transform="translate(301,250)"/>
<path d="M0 0 C2 3 2 3 1.625 5.1875 C1.41875 5.785625 1.2125 6.38375 1 7 C0.34 7 -0.32 7 -1 7 C-1.66 8.32 -2.32 9.64 -3 11 C-3.33 9.02 -3.66 7.04 -4 5 C-3.01 4.34 -2.02 3.68 -1 3 C-0.67 2.01 -0.34 1.02 0 0 Z " fill="#C27E7A" transform="translate(421,245)"/>
<path d="M0 0 C0.99 0 1.98 0 3 0 C3 2.64 3 5.28 3 8 C2.01 8.33 1.02 8.66 0 9 C0 6.03 0 3.06 0 0 Z " fill="#8CA2FC" transform="translate(256,616)"/>
<path d="M0 0 C4.455 1.98 4.455 1.98 9 4 C8.34 4.66 7.68 5.32 7 6 C7 5.34 7 4.68 7 4 C5.02 4.33 3.04 4.66 1 5 C1 4.34 1 3.68 1 3 C0.34 2.34 -0.32 1.68 -1 1 C-0.67 0.67 -0.34 0.34 0 0 Z " fill="#B8CFED" transform="translate(338,400)"/>
<path d="M0 0 C3.26954202 0.56371414 4.82575883 1.49962266 7 4 C5.02 4.33 3.04 4.66 1 5 C0.67 3.35 0.34 1.7 0 0 Z " fill="#20191C" transform="translate(401,136)"/>
<path d="M0 0 C0.66 0.33 1.32 0.66 2 1 C1.67 2.32 1.34 3.64 1 5 C0.34 5 -0.32 5 -1 5 C-1.33 5.66 -1.66 6.32 -2 7 C-2.66 5.68 -3.32 4.36 -4 3 C-2.68 2.01 -1.36 1.02 0 0 Z " fill="#C8817E" transform="translate(326,177)"/>
<path d="M0 0 C0.66 0 1.32 0 2 0 C2.33 1.65 2.66 3.3 3 5 C1.68 5.33 0.36 5.66 -1 6 C-1.625 4.125 -1.625 4.125 -2 2 C-1.34 1.34 -0.68 0.68 0 0 Z " fill="#CEE4DA" transform="translate(436,163)"/>
<path d="M0 0 C2 3.75 2 3.75 2 6 C0.35 6 -1.3 6 -3 6 C-3 5.01 -3 4.02 -3 3 C-2.34 3 -1.68 3 -1 3 C-0.67 2.01 -0.34 1.02 0 0 Z " fill="#CFE2DB" transform="translate(379,120)"/>
<path d="M0 0 C0.99 0.33 1.98 0.66 3 1 C2.34 4.63 1.68 8.26 1 12 C0.67 12 0.34 12 0 12 C0 8.04 0 4.08 0 0 Z " fill="#A7CEFD" transform="translate(267,561)"/>
<path d="M0 0 C3.48832306 2.20927127 4.73058503 4.08597051 6 8 C2.63279613 6.60667426 1.0140476 5.0210714 -1 2 C-0.67 1.34 -0.34 0.68 0 0 Z " fill="#D0E3DB" transform="translate(419,145)"/>
<path d="M0 0 C0.33 0.66 0.66 1.32 1 2 C-0.65 3.65 -2.3 5.3 -4 7 C-4.99 6.67 -5.98 6.34 -7 6 C-2.25 1.125 -2.25 1.125 0 0 Z " fill="#BDDBF5" transform="translate(259,384)"/>
<path d="M0 0 C0.33 0.66 0.66 1.32 1 2 C0.06553465 4.03144641 -0.93224776 6.03533587 -2 8 C-2.66 8 -3.32 8 -4 8 C-2.25 2.25 -2.25 2.25 0 0 Z " fill="#BA7A75" transform="translate(316,187)"/>
<path d="M0 0 C1.98 0.66 3.96 1.32 6 2 C5.67 3.65 5.34 5.3 5 7 C1.125 2.25 1.125 2.25 0 0 Z " fill="#CDDFD8" transform="translate(444,182)"/>
<path d="M0 0 C2.31 0.66 4.62 1.32 7 2 C7 2.66 7 3.32 7 4 C5.35 4 3.7 4 2 4 C2 3.34 2 2.68 2 2 C1.34 2 0.68 2 0 2 C0 1.34 0 0.68 0 0 Z " fill="#C5817E" transform="translate(387,171)"/>
<path d="M0 0 C2.3125 -0.25 2.3125 -0.25 5 0 C6.8125 2 6.8125 2 8 4 C7.01 4.33 6.02 4.66 5 5 C3.35 3.35 1.7 1.7 0 0 Z " fill="#C0D3CB" transform="translate(410,141)"/>
</svg>
